<svg width="447" height="40" viewBox="0 0 447 40" fill="none" xmlns="http://www.w3.org/2000/svg">
<rect width="447" height="40" rx="20" fill="#3062AD"/>
<rect width="441" height="40" rx="20" fill="#5298FF"/>
<rect width="421" height="40" rx="20" fill="#C2DBFF"/>
<path d="M239.696 26V13.947H237.35V21.92L232.335 13.947H229.411V26H231.757V17.449L237.231 26H239.696ZM243.72 20.866C243.771 20.101 244.417 19.217 245.59 19.217C246.882 19.217 247.426 20.033 247.46 20.866H243.72ZM247.681 23.042C247.409 23.79 246.831 24.317 245.777 24.317C244.655 24.317 243.72 23.518 243.669 22.413H249.653C249.653 22.379 249.687 22.039 249.687 21.716C249.687 19.03 248.14 17.381 245.556 17.381C243.414 17.381 241.442 19.115 241.442 21.784C241.442 24.606 243.465 26.255 245.76 26.255C247.817 26.255 249.143 25.048 249.568 23.603L247.681 23.042ZM256.106 17.636L254.287 23.008L252.74 17.636H250.36L253.029 26H255.324L257.245 20.288L259.2 26H261.461L264.079 17.636H261.835L260.288 23.025L258.486 17.636H256.106ZM274.316 17.602C274.146 17.585 273.976 17.568 273.789 17.568C273.075 17.568 271.919 17.772 271.409 18.877V17.636H269.216V26H271.477V22.175C271.477 20.373 272.48 19.812 273.636 19.812C273.84 19.812 274.061 19.829 274.316 19.88V17.602ZM277.322 20.866C277.373 20.101 278.019 19.217 279.192 19.217C280.484 19.217 281.028 20.033 281.062 20.866H277.322ZM281.283 23.042C281.011 23.79 280.433 24.317 279.379 24.317C278.257 24.317 277.322 23.518 277.271 22.413H283.255C283.255 22.379 283.289 22.039 283.289 21.716C283.289 19.03 281.742 17.381 279.158 17.381C277.016 17.381 275.044 19.115 275.044 21.784C275.044 24.606 277.067 26.255 279.362 26.255C281.419 26.255 282.745 25.048 283.17 23.603L281.283 23.042ZM284.454 26.459C284.692 28.057 286.222 29.485 288.517 29.485C291.662 29.485 292.903 27.394 292.903 25.099V17.636H290.727V18.622C290.438 18.061 289.673 17.483 288.347 17.483C286.052 17.483 284.454 19.353 284.454 21.563C284.454 23.909 286.12 25.626 288.347 25.626C289.554 25.626 290.336 25.099 290.676 24.555V25.167C290.676 26.782 289.877 27.496 288.449 27.496C287.378 27.496 286.647 26.833 286.494 25.915L284.454 26.459ZM288.738 23.688C287.565 23.688 286.732 22.872 286.732 21.563C286.732 20.271 287.616 19.455 288.738 19.455C289.826 19.455 290.71 20.271 290.71 21.563C290.71 22.855 289.894 23.688 288.738 23.688ZM297.297 26V17.636H295.036V26H297.297ZM294.764 14.899C294.764 15.647 295.393 16.276 296.158 16.276C296.94 16.276 297.552 15.647 297.552 14.899C297.552 14.117 296.94 13.488 296.158 13.488C295.393 13.488 294.764 14.117 294.764 14.899ZM298.871 23.671C298.973 24.623 299.84 26.255 302.356 26.255C304.549 26.255 305.603 24.861 305.603 23.501C305.603 22.277 304.77 21.274 303.121 20.934L301.931 20.679C301.472 20.594 301.166 20.339 301.166 19.931C301.166 19.455 301.642 19.098 302.237 19.098C303.189 19.098 303.546 19.727 303.614 20.22L305.501 19.795C305.399 18.894 304.6 17.381 302.22 17.381C300.418 17.381 299.092 18.622 299.092 20.118C299.092 21.291 299.823 22.26 301.438 22.617L302.543 22.872C303.189 23.008 303.444 23.314 303.444 23.688C303.444 24.13 303.087 24.521 302.339 24.521C301.353 24.521 300.86 23.909 300.809 23.246L298.871 23.671ZM310.205 15.137H308.165V16.31C308.165 17.058 307.757 17.636 306.873 17.636H306.448V19.642H307.961V23.535C307.961 25.15 308.981 26.119 310.613 26.119C311.276 26.119 311.684 26 311.888 25.915V24.045C311.769 24.079 311.463 24.113 311.191 24.113C310.545 24.113 310.205 23.875 310.205 23.144V19.642H311.888V17.636H310.205V15.137ZM318.635 17.602C318.465 17.585 318.295 17.568 318.108 17.568C317.394 17.568 316.238 17.772 315.728 18.877V17.636H313.535V26H315.796V22.175C315.796 20.373 316.799 19.812 317.955 19.812C318.159 19.812 318.38 19.829 318.635 19.88V17.602ZM319.463 23.722C319.463 25.031 320.551 26.238 322.336 26.238C323.577 26.238 324.376 25.66 324.801 24.997C324.801 25.32 324.835 25.779 324.886 26H326.96C326.909 25.711 326.858 25.116 326.858 24.674V20.56C326.858 18.877 325.872 17.381 323.22 17.381C320.976 17.381 319.769 18.826 319.633 20.135L321.639 20.56C321.707 19.829 322.251 19.2 323.237 19.2C324.189 19.2 324.648 19.693 324.648 20.288C324.648 20.577 324.495 20.815 324.019 20.883L321.962 21.189C320.568 21.393 319.463 22.226 319.463 23.722ZM322.812 24.555C322.081 24.555 321.724 24.079 321.724 23.586C321.724 22.94 322.183 22.617 322.761 22.532L324.648 22.243V22.617C324.648 24.096 323.764 24.555 322.812 24.555ZM331.808 15.137H329.768V16.31C329.768 17.058 329.36 17.636 328.476 17.636H328.051V19.642H329.564V23.535C329.564 25.15 330.584 26.119 332.216 26.119C332.879 26.119 333.287 26 333.491 25.915V24.045C333.372 24.079 333.066 24.113 332.794 24.113C332.148 24.113 331.808 23.875 331.808 23.144V19.642H333.491V17.636H331.808V15.137ZM337.399 26V17.636H335.138V26H337.399ZM334.866 14.899C334.866 15.647 335.495 16.276 336.26 16.276C337.042 16.276 337.654 15.647 337.654 14.899C337.654 14.117 337.042 13.488 336.26 13.488C335.495 13.488 334.866 14.117 334.866 14.899ZM343.41 24.198C342.305 24.198 341.285 23.382 341.285 21.818C341.285 20.237 342.305 19.438 343.41 19.438C344.515 19.438 345.535 20.237 345.535 21.818C345.535 23.399 344.515 24.198 343.41 24.198ZM343.41 17.381C340.911 17.381 339.024 19.234 339.024 21.818C339.024 24.385 340.911 26.255 343.41 26.255C345.909 26.255 347.796 24.385 347.796 21.818C347.796 19.234 345.909 17.381 343.41 17.381ZM351.685 21.189C351.685 20.22 352.263 19.455 353.249 19.455C354.337 19.455 354.796 20.186 354.796 21.121V26H357.057V20.73C357.057 18.894 356.105 17.415 354.031 17.415C353.13 17.415 352.127 17.806 351.617 18.673V17.636H349.424V26H351.685V21.189ZM358.555 23.671C358.657 24.623 359.524 26.255 362.04 26.255C364.233 26.255 365.287 24.861 365.287 23.501C365.287 22.277 364.454 21.274 362.805 20.934L361.615 20.679C361.156 20.594 360.85 20.339 360.85 19.931C360.85 19.455 361.326 19.098 361.921 19.098C362.873 19.098 363.23 19.727 363.298 20.22L365.185 19.795C365.083 18.894 364.284 17.381 361.904 17.381C360.102 17.381 358.776 18.622 358.776 20.118C358.776 21.291 359.507 22.26 361.122 22.617L362.227 22.872C362.873 23.008 363.128 23.314 363.128 23.688C363.128 24.13 362.771 24.521 362.023 24.521C361.037 24.521 360.544 23.909 360.493 23.246L358.555 23.671Z" fill="#407CD4"/>
<path opacity="0.8" d="M378.464 23.776H383.376V26H385.552V23.776H387.264V21.888H385.552V15.616H382.832L378.464 21.472V23.776ZM383.376 21.888H380.416L383.376 17.92V21.888ZM388.039 23.088C388.167 24.72 389.735 26.256 391.991 26.256C394.487 26.256 395.975 24.576 395.975 22.64C395.975 20.416 394.503 19.168 392.423 19.168C391.735 19.168 390.999 19.392 390.551 19.808L391.063 17.52H395.415V15.616H389.559L388.327 20.944C388.551 21.008 390.135 21.552 390.343 21.632C390.679 21.248 391.239 20.928 391.943 20.928C392.903 20.928 393.783 21.488 393.783 22.672C393.783 23.712 392.983 24.368 391.991 24.368C390.887 24.368 390.151 23.584 390.103 22.624L388.039 23.088ZM398.431 18.064C398.431 17.408 398.895 16.96 399.487 16.96C400.095 16.96 400.543 17.408 400.543 18.064C400.543 18.72 400.095 19.184 399.487 19.184C398.895 19.184 398.431 18.736 398.431 18.064ZM396.831 18.064C396.831 19.52 398.031 20.672 399.487 20.672C400.927 20.672 402.159 19.552 402.159 18.064C402.159 16.592 400.927 15.44 399.487 15.44C398.047 15.44 396.831 16.592 396.831 18.064ZM405.423 23.568C405.423 22.912 405.887 22.464 406.479 22.464C407.087 22.464 407.535 22.912 407.535 23.568C407.535 24.224 407.087 24.688 406.479 24.688C405.887 24.688 405.423 24.24 405.423 23.568ZM403.823 23.568C403.823 25.024 405.023 26.176 406.479 26.176C407.919 26.176 409.151 25.056 409.151 23.568C409.151 22.096 407.919 20.944 406.479 20.944C405.039 20.944 403.823 22.096 403.823 23.568ZM400.255 26L407.583 15.616H405.727L398.399 26H400.255Z" fill="#407CD4"/>
<rect width="218" height="40" rx="20" fill="#E3EEFF"/>
<path d="M17.774 19.438V15.987H19.627C20.8 15.987 21.514 16.65 21.514 17.721C21.514 18.758 20.8 19.438 19.627 19.438H17.774ZM19.916 21.461C22.296 21.461 23.877 19.897 23.877 17.704C23.877 15.528 22.296 13.947 19.916 13.947H15.411V26H17.757V21.461H19.916ZM24.5037 23.722C24.5037 25.031 25.5917 26.238 27.3767 26.238C28.6177 26.238 29.4167 25.66 29.8417 24.997C29.8417 25.32 29.8757 25.779 29.9267 26H32.0007C31.9497 25.711 31.8987 25.116 31.8987 24.674V20.56C31.8987 18.877 30.9127 17.381 28.2607 17.381C26.0167 17.381 24.8097 18.826 24.6737 20.135L26.6797 20.56C26.7477 19.829 27.2917 19.2 28.2777 19.2C29.2297 19.2 29.6887 19.693 29.6887 20.288C29.6887 20.577 29.5357 20.815 29.0597 20.883L27.0027 21.189C25.6087 21.393 24.5037 22.226 24.5037 23.722ZM27.8527 24.555C27.1217 24.555 26.7647 24.079 26.7647 23.586C26.7647 22.94 27.2237 22.617 27.8017 22.532L29.6887 22.243V22.617C29.6887 24.096 28.8047 24.555 27.8527 24.555ZM33.4132 23.671C33.5152 24.623 34.3822 26.255 36.8982 26.255C39.0912 26.255 40.1452 24.861 40.1452 23.501C40.1452 22.277 39.3122 21.274 37.6632 20.934L36.4732 20.679C36.0142 20.594 35.7082 20.339 35.7082 19.931C35.7082 19.455 36.1842 19.098 36.7792 19.098C37.7312 19.098 38.0882 19.727 38.1562 20.22L40.0432 19.795C39.9412 18.894 39.1422 17.381 36.7622 17.381C34.9602 17.381 33.6342 18.622 33.6342 20.118C33.6342 21.291 34.3652 22.26 35.9802 22.617L37.0852 22.872C37.7312 23.008 37.9862 23.314 37.9862 23.688C37.9862 24.13 37.6292 24.521 36.8812 24.521C35.8952 24.521 35.4022 23.909 35.3512 23.246L33.4132 23.671ZM44.7472 15.137H42.7072V16.31C42.7072 17.058 42.2992 17.636 41.4152 17.636H40.9902V19.642H42.5032V23.535C42.5032 25.15 43.5232 26.119 45.1552 26.119C45.8182 26.119 46.2262 26 46.4302 25.915V24.045C46.3112 24.079 46.0052 24.113 45.7332 24.113C45.0872 24.113 44.7472 23.875 44.7472 23.144V19.642H46.4302V17.636H44.7472V15.137ZM57.0417 17.602C56.8717 17.585 56.7017 17.568 56.5147 17.568C55.8007 17.568 54.6447 17.772 54.1347 18.877V17.636H51.9417V26H54.2027V22.175C54.2027 20.373 55.2057 19.812 56.3617 19.812C56.5657 19.812 56.7867 19.829 57.0417 19.88V17.602ZM60.048 20.866C60.099 20.101 60.745 19.217 61.918 19.217C63.21 19.217 63.754 20.033 63.788 20.866H60.048ZM64.009 23.042C63.737 23.79 63.159 24.317 62.105 24.317C60.983 24.317 60.048 23.518 59.997 22.413H65.981C65.981 22.379 66.015 22.039 66.015 21.716C66.015 19.03 64.468 17.381 61.884 17.381C59.742 17.381 57.77 19.115 57.77 21.784C57.77 24.606 59.793 26.255 62.088 26.255C64.145 26.255 65.471 25.048 65.896 23.603L64.009 23.042ZM67.1791 26.459C67.4171 28.057 68.9471 29.485 71.2421 29.485C74.3871 29.485 75.6281 27.394 75.6281 25.099V17.636H73.4521V18.622C73.1631 18.061 72.3981 17.483 71.0721 17.483C68.7771 17.483 67.1791 19.353 67.1791 21.563C67.1791 23.909 68.8451 25.626 71.0721 25.626C72.2791 25.626 73.0611 25.099 73.4011 24.555V25.167C73.4011 26.782 72.6021 27.496 71.1741 27.496C70.1031 27.496 69.3721 26.833 69.2191 25.915L67.1791 26.459ZM71.4631 23.688C70.2901 23.688 69.4571 22.872 69.4571 21.563C69.4571 20.271 70.3411 19.455 71.4631 19.455C72.5511 19.455 73.4351 20.271 73.4351 21.563C73.4351 22.855 72.6191 23.688 71.4631 23.688ZM80.0228 26V17.636H77.7618V26H80.0228ZM77.4898 14.899C77.4898 15.647 78.1188 16.276 78.8838 16.276C79.6658 16.276 80.2778 15.647 80.2778 14.899C80.2778 14.117 79.6658 13.488 78.8838 13.488C78.1188 13.488 77.4898 14.117 77.4898 14.899ZM81.5963 23.671C81.6983 24.623 82.5653 26.255 85.0813 26.255C87.2743 26.255 88.3283 24.861 88.3283 23.501C88.3283 22.277 87.4953 21.274 85.8463 20.934L84.6563 20.679C84.1973 20.594 83.8913 20.339 83.8913 19.931C83.8913 19.455 84.3673 19.098 84.9623 19.098C85.9143 19.098 86.2713 19.727 86.3393 20.22L88.2263 19.795C88.1243 18.894 87.3253 17.381 84.9453 17.381C83.1433 17.381 81.8173 18.622 81.8173 20.118C81.8173 21.291 82.5483 22.26 84.1633 22.617L85.2683 22.872C85.9143 23.008 86.1693 23.314 86.1693 23.688C86.1693 24.13 85.8123 24.521 85.0643 24.521C84.0783 24.521 83.5853 23.909 83.5343 23.246L81.5963 23.671ZM92.9302 15.137H90.8902V16.31C90.8902 17.058 90.4822 17.636 89.5982 17.636H89.1732V19.642H90.6862V23.535C90.6862 25.15 91.7062 26.119 93.3382 26.119C94.0012 26.119 94.4092 26 94.6132 25.915V24.045C94.4942 24.079 94.1882 24.113 93.9162 24.113C93.2702 24.113 92.9302 23.875 92.9302 23.144V19.642H94.6132V17.636H92.9302V15.137ZM101.361 17.602C101.191 17.585 101.021 17.568 100.834 17.568C100.12 17.568 98.9636 17.772 98.4536 18.877V17.636H96.2606V26H98.5216V22.175C98.5216 20.373 99.5246 19.812 100.681 19.812C100.885 19.812 101.106 19.829 101.361 19.88V17.602ZM102.188 23.722C102.188 25.031 103.276 26.238 105.061 26.238C106.302 26.238 107.101 25.66 107.526 24.997C107.526 25.32 107.56 25.779 107.611 26H109.685C109.634 25.711 109.583 25.116 109.583 24.674V20.56C109.583 18.877 108.597 17.381 105.945 17.381C103.701 17.381 102.494 18.826 102.358 20.135L104.364 20.56C104.432 19.829 104.976 19.2 105.962 19.2C106.914 19.2 107.373 19.693 107.373 20.288C107.373 20.577 107.22 20.815 106.744 20.883L104.687 21.189C103.293 21.393 102.188 22.226 102.188 23.722ZM105.537 24.555C104.806 24.555 104.449 24.079 104.449 23.586C104.449 22.94 104.908 22.617 105.486 22.532L107.373 22.243V22.617C107.373 24.096 106.489 24.555 105.537 24.555ZM114.533 15.137H112.493V16.31C112.493 17.058 112.085 17.636 111.201 17.636H110.776V19.642H112.289V23.535C112.289 25.15 113.309 26.119 114.941 26.119C115.604 26.119 116.012 26 116.216 25.915V24.045C116.097 24.079 115.791 24.113 115.519 24.113C114.873 24.113 114.533 23.875 114.533 23.144V19.642H116.216V17.636H114.533V15.137ZM120.125 26V17.636H117.864V26H120.125ZM117.592 14.899C117.592 15.647 118.221 16.276 118.986 16.276C119.768 16.276 120.38 15.647 120.38 14.899C120.38 14.117 119.768 13.488 118.986 13.488C118.221 13.488 117.592 14.117 117.592 14.899ZM126.135 24.198C125.03 24.198 124.01 23.382 124.01 21.818C124.01 20.237 125.03 19.438 126.135 19.438C127.24 19.438 128.26 20.237 128.26 21.818C128.26 23.399 127.24 24.198 126.135 24.198ZM126.135 17.381C123.636 17.381 121.749 19.234 121.749 21.818C121.749 24.385 123.636 26.255 126.135 26.255C128.634 26.255 130.521 24.385 130.521 21.818C130.521 19.234 128.634 17.381 126.135 17.381ZM134.411 21.189C134.411 20.22 134.989 19.455 135.975 19.455C137.063 19.455 137.522 20.186 137.522 21.121V26H139.783V20.73C139.783 18.894 138.831 17.415 136.757 17.415C135.856 17.415 134.853 17.806 134.343 18.673V17.636H132.15V26H134.411V21.189ZM141.28 23.671C141.382 24.623 142.249 26.255 144.765 26.255C146.958 26.255 148.012 24.861 148.012 23.501C148.012 22.277 147.179 21.274 145.53 20.934L144.34 20.679C143.881 20.594 143.575 20.339 143.575 19.931C143.575 19.455 144.051 19.098 144.646 19.098C145.598 19.098 145.955 19.727 146.023 20.22L147.91 19.795C147.808 18.894 147.009 17.381 144.629 17.381C142.827 17.381 141.501 18.622 141.501 20.118C141.501 21.291 142.232 22.26 143.847 22.617L144.952 22.872C145.598 23.008 145.853 23.314 145.853 23.688C145.853 24.13 145.496 24.521 144.748 24.521C143.762 24.521 143.269 23.909 143.218 23.246L141.28 23.671Z" fill="#5298FF"/>
<path opacity="0.8" d="M175.464 23.776H180.376V26H182.552V23.776H184.264V21.888H182.552V15.616H179.832L175.464 21.472V23.776ZM180.376 21.888H177.416L180.376 17.92V21.888ZM185.039 23.088C185.167 24.72 186.735 26.256 188.991 26.256C191.487 26.256 192.975 24.576 192.975 22.64C192.975 20.416 191.503 19.168 189.423 19.168C188.735 19.168 187.999 19.392 187.551 19.808L188.063 17.52H192.415V15.616H186.559L185.327 20.944C185.551 21.008 187.135 21.552 187.343 21.632C187.679 21.248 188.239 20.928 188.943 20.928C189.903 20.928 190.783 21.488 190.783 22.672C190.783 23.712 189.983 24.368 188.991 24.368C187.887 24.368 187.151 23.584 187.103 22.624L185.039 23.088ZM195.431 18.064C195.431 17.408 195.895 16.96 196.487 16.96C197.095 16.96 197.543 17.408 197.543 18.064C197.543 18.72 197.095 19.184 196.487 19.184C195.895 19.184 195.431 18.736 195.431 18.064ZM193.831 18.064C193.831 19.52 195.031 20.672 196.487 20.672C197.927 20.672 199.159 19.552 199.159 18.064C199.159 16.592 197.927 15.44 196.487 15.44C195.047 15.44 193.831 16.592 193.831 18.064ZM202.423 23.568C202.423 22.912 202.887 22.464 203.479 22.464C204.087 22.464 204.535 22.912 204.535 23.568C204.535 24.224 204.087 24.688 203.479 24.688C202.887 24.688 202.423 24.24 202.423 23.568ZM200.823 23.568C200.823 25.024 202.023 26.176 203.479 26.176C204.919 26.176 206.151 25.056 206.151 23.568C206.151 22.096 204.919 20.944 203.479 20.944C202.039 20.944 200.823 22.096 200.823 23.568ZM197.255 26L204.583 15.616H202.727L195.399 26H197.255Z" fill="#5298FF"/>
</svg>
