<svg width="40" height="40" viewBox="0 0 40 40" fill="none" xmlns="http://www.w3.org/2000/svg">
<path d="M33.703 0C36.0464 0 37.9364 1.895 38.048 4.125V40L33.5864 36.2117L31.1364 33.9817L28.463 31.6517L29.5797 35.3267H6.18304C3.84637 35.3267 1.94971 33.5517 1.94971 31.2V4.13333C1.94971 1.90333 3.84971 0.005 6.19137 0.005H33.6914L33.703 0ZM23.5064 9.47167H23.4564L23.1197 9.805C26.5747 10.805 28.2464 12.3667 28.2464 12.3667C26.0197 11.2533 24.013 10.6967 22.0064 10.4717C20.5564 10.2467 19.1064 10.365 17.8814 10.4717H17.548C16.7647 10.4717 15.098 10.805 12.8647 11.6967C12.0864 12.035 11.6397 12.2567 11.6397 12.2567C11.6397 12.2567 13.3097 10.5867 16.9897 9.695L16.7647 9.47C16.7647 9.47 13.978 9.36333 10.9697 11.5867C10.9697 11.5867 7.96137 16.8267 7.96137 23.2867C7.96137 23.2867 9.62804 26.1867 14.1997 26.2967C14.1997 26.2967 14.8664 25.4083 15.5414 24.6267C12.9747 23.8467 11.9747 22.2867 11.9747 22.2867C11.9747 22.2867 12.198 22.3967 12.533 22.62H12.633C12.683 22.62 12.7064 22.645 12.733 22.67V22.68C12.7597 22.7067 12.783 22.73 12.833 22.73C13.383 22.9567 13.933 23.18 14.383 23.3967C15.1597 23.7333 16.158 24.0683 17.383 24.29C18.933 24.515 20.7097 24.6233 22.733 24.29C23.733 24.065 24.733 23.845 25.733 23.3983C26.383 23.065 27.183 22.7317 28.0614 22.17C28.0614 22.17 27.0614 23.73 24.3864 24.51C24.9364 25.2867 25.7114 26.1767 25.7114 26.1767C30.2847 26.0767 32.0614 23.1767 32.1614 23.3C32.1614 16.85 29.1364 11.6 29.1364 11.6C26.4114 9.57667 23.8614 9.5 23.4114 9.5L23.5047 9.46667L23.5064 9.47167ZM23.7864 16.8267C24.958 16.8267 25.903 17.8267 25.903 19.0517C25.903 20.285 24.953 21.285 23.7864 21.285C22.6197 21.285 21.6697 20.285 21.6697 19.0617C21.673 17.8283 22.6247 16.8317 23.7864 16.8317V16.8267ZM16.2147 16.8267C17.3814 16.8267 18.3247 17.8267 18.3247 19.0517C18.3247 20.285 17.3747 21.285 16.208 21.285C15.0414 21.285 14.0914 20.285 14.0914 19.0617C14.0914 17.8283 15.0414 16.8317 16.208 16.8317L16.2147 16.8267Z" fill="#854BFF"/>
</svg>
