<svg width="110" height="48" viewBox="0 0 110 48" fill="none" xmlns="http://www.w3.org/2000/svg">
<path d="M68.7022 34V30.62H60.7462V26.356H67.9482V23.158H60.7462V18.946H68.7022V15.566H57.1582V34H68.7022Z" fill="#5298FF"/>
<path d="M87.6848 34V15.566H84.0968V27.76L76.4268 15.566H71.9548V34H75.5428V20.922L83.9148 34H87.6848Z" fill="#5298FF"/>
<path d="M104.181 19.96C103.765 17.88 102.049 15.176 97.5774 15.176C94.0934 15.176 91.1554 17.672 91.1554 20.948C91.1554 23.73 93.0534 25.628 95.9914 26.226L98.5654 26.746C99.9954 27.032 100.801 27.864 100.801 28.93C100.801 30.23 99.7354 31.192 97.8114 31.192C95.2114 31.192 93.9374 29.554 93.7814 27.734L90.4534 28.618C90.7394 31.244 92.8974 34.39 97.7854 34.39C102.075 34.39 104.441 31.53 104.441 28.696C104.441 26.096 102.647 23.912 99.2934 23.262L96.7194 22.768C95.3674 22.508 94.7174 21.702 94.7174 20.688C94.7174 19.466 95.8614 18.348 97.6034 18.348C99.9434 18.348 100.775 19.934 100.957 20.948L104.181 19.96Z" fill="#5298FF"/>
<g clip-path="url(#clip0)">
<path d="M5.5023 19.4194C5.97665 20.4334 7.15067 22.4376 7.15067 22.4376L20.7231 0L7.47679 9.25015C6.68749 9.77672 6.03993 10.4895 5.59124 11.3255C4.98794 12.5868 4.6674 13.9646 4.65204 15.3626C4.63667 16.7607 4.92686 18.1452 5.5023 19.4194Z" fill="#5298FF"/>
<path d="M0.124309 26.8077C0.273867 28.9539 0.880247 31.0435 1.90284 32.9363C2.92544 34.8292 4.34065 36.4818 6.05371 37.7833L20.7053 48C20.7053 48 11.5384 34.7889 3.80647 21.643C3.02369 20.2541 2.49745 18.7356 2.25296 17.1602C2.14473 16.4468 2.14473 15.7212 2.25296 15.0078C2.05136 15.3814 1.66002 16.1463 1.66002 16.1463C0.876033 17.7453 0.3421 19.4551 0.0768734 21.2161C-0.0757885 23.0776 -0.0599122 24.949 0.124309 26.8077Z" fill="#5298FF"/>
<path d="M37.5033 28.5806C37.0289 27.5667 35.8549 25.5625 35.8549 25.5625L22.2825 48L35.5288 38.7558C36.3181 38.2292 36.9656 37.5165 37.4143 36.6804C38.0185 35.4184 38.3395 34.0395 38.3549 32.6404C38.3703 31.2412 38.0796 29.8556 37.5033 28.5806Z" fill="#5298FF"/>
<path d="M42.8812 21.1923C42.7316 19.0461 42.1253 16.9566 41.1027 15.0637C40.0801 13.1708 38.6649 11.5182 36.9518 10.2167L22.3003 0C22.3003 0 31.4612 13.2111 39.1991 26.357C39.9798 27.7463 40.504 29.2647 40.7466 30.8398C40.8549 31.5532 40.8549 32.2788 40.7466 32.9922C40.9482 32.6187 41.3396 31.8537 41.3396 31.8537C42.1236 30.2548 42.6575 28.5449 42.9227 26.7839C43.0773 24.9226 43.0635 23.0512 42.8812 21.1923Z" fill="#5298FF"/>
<path d="M5.59124 11.3255C6.03993 10.4895 6.68749 9.77672 7.47679 9.25015L20.7231 0L7.15064 22.4435C7.15064 22.4435 5.96477 20.4393 5.50227 19.4253C4.92593 18.1503 4.63527 16.7647 4.65063 15.3656C4.666 13.9664 4.98704 12.5876 5.59124 11.3255ZM0.124309 26.8077C0.273867 28.9539 0.880247 31.0435 1.90284 32.9363C2.92544 34.8292 4.34065 36.4818 6.05371 37.7833L20.7053 48C20.7053 48 11.5384 34.7889 3.80647 21.643C3.02369 20.2541 2.49745 18.7356 2.25296 17.1602C2.14473 16.4468 2.14473 15.7212 2.25296 15.0078C2.05136 15.3814 1.66002 16.1463 1.66002 16.1463C0.876033 17.7453 0.3421 19.4551 0.0768734 21.2161C-0.0757885 23.0776 -0.0599122 24.949 0.124309 26.8077ZM37.4795 28.5865C37.0052 27.5726 35.8311 25.5684 35.8311 25.5684L22.2825 48L35.5288 38.7558C36.3181 38.2292 36.9656 37.5165 37.4143 36.6804C38.0185 35.4184 38.3395 34.0395 38.3549 32.6404C38.3703 31.2412 38.0796 29.8556 37.5033 28.5806L37.4795 28.5865ZM42.8575 21.1983C42.7079 19.052 42.1015 16.9625 41.0789 15.0696C40.0563 13.1767 38.6411 11.5242 36.9281 10.2226L22.3003 0C22.3003 0 31.4612 13.2111 39.1991 26.357C39.9798 27.7463 40.504 29.2647 40.7466 30.8398C40.8549 31.5532 40.8549 32.2788 40.7466 32.9922C40.9482 32.6187 41.3396 31.8537 41.3396 31.8537C42.1236 30.2548 42.6575 28.5449 42.9227 26.7839C43.0773 24.9226 43.0635 23.0512 42.8812 21.1923L42.8575 21.1983Z" fill="#5298FF"/>
</g>
<defs>
<clipPath id="clip0">
<rect width="43" height="48" fill="white"/>
</clipPath>
</defs>
</svg>
