<svg width="447" height="40" viewBox="0 0 447 40" fill="none" xmlns="http://www.w3.org/2000/svg">
<rect width="447" height="40" rx="20" fill="#5298FF"/>
<path d="M278.251 16.174V13.947H268.272V16.174H272.08V26H274.443V16.174H278.251ZM283.217 17.602C283.047 17.585 282.877 17.568 282.69 17.568C281.976 17.568 280.82 17.772 280.31 18.877V17.636H278.117V26H280.378V22.175C280.378 20.373 281.381 19.812 282.537 19.812C282.741 19.812 282.962 19.829 283.217 19.88V17.602ZM286.223 20.866C286.274 20.101 286.92 19.217 288.093 19.217C289.385 19.217 289.929 20.033 289.963 20.866H286.223ZM290.184 23.042C289.912 23.79 289.334 24.317 288.28 24.317C287.158 24.317 286.223 23.518 286.172 22.413H292.156C292.156 22.379 292.19 22.039 292.19 21.716C292.19 19.03 290.643 17.381 288.059 17.381C285.917 17.381 283.945 19.115 283.945 21.784C283.945 24.606 285.968 26.255 288.263 26.255C290.32 26.255 291.646 25.048 292.071 23.603L290.184 23.042ZM293.354 23.722C293.354 25.031 294.442 26.238 296.227 26.238C297.468 26.238 298.267 25.66 298.692 24.997C298.692 25.32 298.726 25.779 298.777 26H300.851C300.8 25.711 300.749 25.116 300.749 24.674V20.56C300.749 18.877 299.763 17.381 297.111 17.381C294.867 17.381 293.66 18.826 293.524 20.135L295.53 20.56C295.598 19.829 296.142 19.2 297.128 19.2C298.08 19.2 298.539 19.693 298.539 20.288C298.539 20.577 298.386 20.815 297.91 20.883L295.853 21.189C294.459 21.393 293.354 22.226 293.354 23.722ZM296.703 24.555C295.972 24.555 295.615 24.079 295.615 23.586C295.615 22.94 296.074 22.617 296.652 22.532L298.539 22.243V22.617C298.539 24.096 297.655 24.555 296.703 24.555ZM302.264 23.671C302.366 24.623 303.233 26.255 305.749 26.255C307.942 26.255 308.996 24.861 308.996 23.501C308.996 22.277 308.163 21.274 306.514 20.934L305.324 20.679C304.865 20.594 304.559 20.339 304.559 19.931C304.559 19.455 305.035 19.098 305.63 19.098C306.582 19.098 306.939 19.727 307.007 20.22L308.894 19.795C308.792 18.894 307.993 17.381 305.613 17.381C303.811 17.381 302.485 18.622 302.485 20.118C302.485 21.291 303.216 22.26 304.831 22.617L305.936 22.872C306.582 23.008 306.837 23.314 306.837 23.688C306.837 24.13 306.48 24.521 305.732 24.521C304.746 24.521 304.253 23.909 304.202 23.246L302.264 23.671ZM316.131 26H318.29C318.256 25.711 318.205 25.133 318.205 24.487V17.636H315.944V22.498C315.944 23.467 315.366 24.147 314.363 24.147C313.309 24.147 312.833 23.399 312.833 22.464V17.636H310.572V22.923C310.572 24.742 311.728 26.221 313.751 26.221C314.635 26.221 315.604 25.881 316.063 25.099C316.063 25.439 316.097 25.83 316.131 26ZM325.448 17.602C325.278 17.585 325.108 17.568 324.921 17.568C324.207 17.568 323.051 17.772 322.541 18.877V17.636H320.348V26H322.609V22.175C322.609 20.373 323.612 19.812 324.768 19.812C324.972 19.812 325.193 19.829 325.448 19.88V17.602ZM329.795 29.298L335.048 17.636H332.634L330.577 22.532L328.35 17.636H325.817L329.37 24.946L327.398 29.298H329.795Z" fill="white"/>
<path opacity="0.9" d="M401.48 22.088C401.608 23.72 403.176 25.256 405.432 25.256C407.928 25.256 409.416 23.576 409.416 21.64C409.416 19.416 407.944 18.168 405.864 18.168C405.176 18.168 404.44 18.392 403.992 18.808L404.504 16.52H408.856V14.616H403L401.768 19.944C401.992 20.008 403.576 20.552 403.784 20.632C404.12 20.248 404.68 19.928 405.384 19.928C406.344 19.928 407.224 20.488 407.224 21.672C407.224 22.712 406.424 23.368 405.432 23.368C404.328 23.368 403.592 22.584 403.544 21.624L401.48 22.088ZM412.752 19.816C412.752 18.728 412.912 17.8 413.312 17.176C413.632 16.664 414.128 16.328 414.88 16.328C415.648 16.328 416.112 16.664 416.432 17.176C416.848 17.8 417.008 18.728 417.008 19.816C417.008 20.904 416.848 21.832 416.432 22.456C416.112 22.968 415.648 23.304 414.88 23.304C414.128 23.304 413.632 22.968 413.312 22.456C412.912 21.832 412.752 20.904 412.752 19.816ZM410.544 19.816C410.544 21.144 410.752 22.44 411.456 23.512C412.144 24.536 413.264 25.256 414.88 25.256C416.496 25.256 417.616 24.536 418.288 23.512C418.992 22.44 419.216 21.144 419.216 19.816C419.216 18.488 418.992 17.192 418.288 16.12C417.616 15.096 416.496 14.376 414.88 14.376C413.264 14.376 412.144 15.096 411.456 16.12C410.752 17.192 410.544 18.488 410.544 19.816ZM421.806 17.064C421.806 16.408 422.27 15.96 422.862 15.96C423.47 15.96 423.918 16.408 423.918 17.064C423.918 17.72 423.47 18.184 422.862 18.184C422.27 18.184 421.806 17.736 421.806 17.064ZM420.206 17.064C420.206 18.52 421.406 19.672 422.862 19.672C424.302 19.672 425.534 18.552 425.534 17.064C425.534 15.592 424.302 14.44 422.862 14.44C421.422 14.44 420.206 15.592 420.206 17.064ZM428.798 22.568C428.798 21.912 429.262 21.464 429.854 21.464C430.462 21.464 430.91 21.912 430.91 22.568C430.91 23.224 430.462 23.688 429.854 23.688C429.262 23.688 428.798 23.24 428.798 22.568ZM427.198 22.568C427.198 24.024 428.398 25.176 429.854 25.176C431.294 25.176 432.526 24.056 432.526 22.568C432.526 21.096 431.294 19.944 429.854 19.944C428.414 19.944 427.198 21.096 427.198 22.568ZM423.63 25L430.958 14.616H429.102L421.774 25H423.63Z" fill="white"/>
<rect width="257" height="40" rx="20" fill="#C2DBFF"/>
<path d="M153.537 26H156.087L151.497 13.947H148.777L144.153 26H146.635L147.638 23.246H152.534L153.537 26ZM150.086 16.548L151.752 21.104H148.42L150.086 16.548ZM159.499 26V17.636H157.238V26H159.499ZM156.966 14.899C156.966 15.647 157.595 16.276 158.36 16.276C159.142 16.276 159.754 15.647 159.754 14.899C159.754 14.117 159.142 13.488 158.36 13.488C157.595 13.488 156.966 14.117 156.966 14.899ZM166.733 17.602C166.563 17.585 166.393 17.568 166.206 17.568C165.492 17.568 164.336 17.772 163.826 18.877V17.636H161.633V26H163.894V22.175C163.894 20.373 164.897 19.812 166.053 19.812C166.257 19.812 166.478 19.829 166.733 19.88V17.602ZM176.047 13.692H173.82V18.469C173.582 18.027 172.902 17.432 171.457 17.432C169.094 17.432 167.445 19.353 167.445 21.801C167.445 24.334 169.145 26.204 171.525 26.204C172.647 26.204 173.497 25.694 173.871 25.031C173.871 25.422 173.922 25.83 173.956 26H176.115C176.081 25.66 176.047 25.048 176.047 24.487V13.692ZM169.723 21.801C169.723 20.305 170.641 19.455 171.797 19.455C172.953 19.455 173.854 20.288 173.854 21.784C173.854 23.297 172.953 24.181 171.797 24.181C170.607 24.181 169.723 23.297 169.723 21.801ZM183.294 17.602C183.124 17.585 182.954 17.568 182.767 17.568C182.053 17.568 180.897 17.772 180.387 18.877V17.636H178.194V26H180.455V22.175C180.455 20.373 181.458 19.812 182.614 19.812C182.818 19.812 183.039 19.829 183.294 19.88V17.602ZM188.391 24.198C187.286 24.198 186.266 23.382 186.266 21.818C186.266 20.237 187.286 19.438 188.391 19.438C189.496 19.438 190.516 20.237 190.516 21.818C190.516 23.399 189.496 24.198 188.391 24.198ZM188.391 17.381C185.892 17.381 184.005 19.234 184.005 21.818C184.005 24.385 185.892 26.255 188.391 26.255C190.89 26.255 192.777 24.385 192.777 21.818C192.777 19.234 190.89 17.381 188.391 17.381ZM196.667 29.23V25.184C197.075 25.745 197.925 26.204 199.081 26.204C201.444 26.204 203.025 24.334 203.025 21.801C203.025 19.319 201.614 17.449 199.166 17.449C197.908 17.449 196.973 18.01 196.599 18.656V17.636H194.406V29.23H196.667ZM200.798 21.818C200.798 23.314 199.88 24.181 198.724 24.181C197.568 24.181 196.633 23.297 196.633 21.818C196.633 20.339 197.568 19.472 198.724 19.472C199.88 19.472 200.798 20.339 200.798 21.818Z" fill="#407CD4"/>
<path opacity="0.8" d="M217.912 19.632C217.864 19.456 217.832 19.248 217.832 19.056C217.832 18.08 218.376 17.328 219.48 17.328C220.52 17.328 221.048 18 221.048 18.752C221.048 19.472 220.696 20.016 219.816 20.544L218.104 21.568C216.248 22.688 215.672 24.176 215.656 26H223.336V24.096H218.36C218.52 23.696 218.856 23.408 219.256 23.152L221.256 21.936C222.536 21.152 223.272 20.064 223.272 18.72C223.272 16.912 221.848 15.376 219.528 15.376C217.112 15.376 215.736 17.024 215.736 18.848C215.736 19.104 215.784 19.424 215.816 19.568L217.912 19.632ZM224.398 23.088C224.526 24.72 226.094 26.256 228.35 26.256C230.846 26.256 232.334 24.576 232.334 22.64C232.334 20.416 230.862 19.168 228.782 19.168C228.094 19.168 227.358 19.392 226.91 19.808L227.422 17.52H231.774V15.616H225.918L224.686 20.944C224.91 21.008 226.494 21.552 226.702 21.632C227.038 21.248 227.598 20.928 228.302 20.928C229.262 20.928 230.142 21.488 230.142 22.672C230.142 23.712 229.342 24.368 228.35 24.368C227.246 24.368 226.51 23.584 226.462 22.624L224.398 23.088ZM234.791 18.064C234.791 17.408 235.255 16.96 235.847 16.96C236.455 16.96 236.903 17.408 236.903 18.064C236.903 18.72 236.455 19.184 235.847 19.184C235.255 19.184 234.791 18.736 234.791 18.064ZM233.191 18.064C233.191 19.52 234.391 20.672 235.847 20.672C237.287 20.672 238.519 19.552 238.519 18.064C238.519 16.592 237.287 15.44 235.847 15.44C234.407 15.44 233.191 16.592 233.191 18.064ZM241.783 23.568C241.783 22.912 242.247 22.464 242.839 22.464C243.447 22.464 243.895 22.912 243.895 23.568C243.895 24.224 243.447 24.688 242.839 24.688C242.247 24.688 241.783 24.24 241.783 23.568ZM240.183 23.568C240.183 25.024 241.383 26.176 242.839 26.176C244.279 26.176 245.511 25.056 245.511 23.568C245.511 22.096 244.279 20.944 242.839 20.944C241.399 20.944 240.183 22.096 240.183 23.568ZM236.615 26L243.943 15.616H242.087L234.759 26H236.615Z" fill="#407CD4"/>
<rect width="133" height="40" rx="20" fill="#E3EEFF"/>
<path d="M24.251 16.174V13.947H14.272V16.174H18.08V26H20.443V16.174H24.251ZM25.3706 20.866C25.4216 20.101 26.0676 19.217 27.2406 19.217C28.5326 19.217 29.0766 20.033 29.1106 20.866H25.3706ZM29.3316 23.042C29.0596 23.79 28.4816 24.317 27.4276 24.317C26.3056 24.317 25.3706 23.518 25.3196 22.413H31.3036C31.3036 22.379 31.3376 22.039 31.3376 21.716C31.3376 19.03 29.7906 17.381 27.2066 17.381C25.0646 17.381 23.0926 19.115 23.0926 21.784C23.0926 24.606 25.1156 26.255 27.4106 26.255C29.4676 26.255 30.7936 25.048 31.2186 23.603L29.3316 23.042ZM32.5017 23.722C32.5017 25.031 33.5897 26.238 35.3747 26.238C36.6157 26.238 37.4147 25.66 37.8397 24.997C37.8397 25.32 37.8737 25.779 37.9247 26H39.9987C39.9477 25.711 39.8967 25.116 39.8967 24.674V20.56C39.8967 18.877 38.9107 17.381 36.2587 17.381C34.0147 17.381 32.8077 18.826 32.6717 20.135L34.6777 20.56C34.7457 19.829 35.2897 19.2 36.2757 19.2C37.2277 19.2 37.6867 19.693 37.6867 20.288C37.6867 20.577 37.5337 20.815 37.0577 20.883L35.0007 21.189C33.6067 21.393 32.5017 22.226 32.5017 23.722ZM35.8507 24.555C35.1197 24.555 34.7627 24.079 34.7627 23.586C34.7627 22.94 35.2217 22.617 35.7997 22.532L37.6867 22.243V22.617C37.6867 24.096 36.8027 24.555 35.8507 24.555ZM44.2332 26V21.104C44.2332 20.186 44.8112 19.455 45.7972 19.455C46.8172 19.455 47.2762 20.135 47.2762 21.036V26H49.5202V21.104C49.5202 20.203 50.0982 19.455 51.0672 19.455C52.1042 19.455 52.5462 20.135 52.5462 21.036V26H54.7392V20.577C54.7392 18.333 53.2602 17.398 51.7132 17.398C50.6082 17.398 49.7242 17.772 49.0612 18.792C48.6362 17.891 47.7182 17.398 46.5792 17.398C45.6612 17.398 44.5902 17.84 44.1312 18.656V17.636H41.9722V26H44.2332Z" fill="#5298FF"/>
<path opacity="0.8" d="M90.912 19.632C90.864 19.456 90.832 19.248 90.832 19.056C90.832 18.08 91.376 17.328 92.48 17.328C93.52 17.328 94.048 18 94.048 18.752C94.048 19.472 93.696 20.016 92.816 20.544L91.104 21.568C89.248 22.688 88.672 24.176 88.656 26H96.336V24.096H91.36C91.52 23.696 91.856 23.408 92.256 23.152L94.256 21.936C95.536 21.152 96.272 20.064 96.272 18.72C96.272 16.912 94.848 15.376 92.528 15.376C90.112 15.376 88.736 17.024 88.736 18.848C88.736 19.104 88.784 19.424 88.816 19.568L90.912 19.632ZM97.3981 23.088C97.5261 24.72 99.0941 26.256 101.35 26.256C103.846 26.256 105.334 24.576 105.334 22.64C105.334 20.416 103.862 19.168 101.782 19.168C101.094 19.168 100.358 19.392 99.9101 19.808L100.422 17.52H104.774V15.616H98.9181L97.6861 20.944C97.9101 21.008 99.4941 21.552 99.7021 21.632C100.038 21.248 100.598 20.928 101.302 20.928C102.262 20.928 103.142 21.488 103.142 22.672C103.142 23.712 102.342 24.368 101.35 24.368C100.246 24.368 99.5101 23.584 99.4621 22.624L97.3981 23.088ZM107.791 18.064C107.791 17.408 108.255 16.96 108.847 16.96C109.455 16.96 109.903 17.408 109.903 18.064C109.903 18.72 109.455 19.184 108.847 19.184C108.255 19.184 107.791 18.736 107.791 18.064ZM106.191 18.064C106.191 19.52 107.391 20.672 108.847 20.672C110.287 20.672 111.519 19.552 111.519 18.064C111.519 16.592 110.287 15.44 108.847 15.44C107.407 15.44 106.191 16.592 106.191 18.064ZM114.783 23.568C114.783 22.912 115.247 22.464 115.839 22.464C116.447 22.464 116.895 22.912 116.895 23.568C116.895 24.224 116.447 24.688 115.839 24.688C115.247 24.688 114.783 24.24 114.783 23.568ZM113.183 23.568C113.183 25.024 114.383 26.176 115.839 26.176C117.279 26.176 118.511 25.056 118.511 23.568C118.511 22.096 117.279 20.944 115.839 20.944C114.399 20.944 113.183 22.096 113.183 23.568ZM109.615 26L116.943 15.616H115.087L107.759 26H109.615Z" fill="#5298FF"/>
</svg>
