<svg width="258" height="258" viewBox="0 0 258 258" fill="none" xmlns="http://www.w3.org/2000/svg">
    <g filter="url(#filter0_d)">
        <circle cx="129" cy="125" r="103" fill="url(#paint0_linear)"/>
    </g>
    <g clip-path="url(#clip0)">
        <path d="M84.2279 112.808C85.5406 115.617 88.7897 121.171 88.7897 121.171L126.35 59L89.6922 84.6306C87.5078 86.0897 85.7158 88.0646 84.474 90.3811C82.8044 93.8758 81.9173 97.6935 81.8748 101.567C81.8323 105.441 82.6354 109.277 84.2279 112.808Z" fill="white"/>
        <path d="M69.3446 133.28C69.7585 139.227 71.4366 145.016 74.2666 150.261C77.0966 155.506 81.0131 160.085 85.7539 163.691L126.301 192C126.301 192 100.932 155.394 79.5348 118.969C77.3685 115.121 75.9121 110.913 75.2355 106.548C74.936 104.571 74.936 102.561 75.2355 100.584C74.6776 101.619 73.5946 103.739 73.5946 103.739C71.425 108.169 69.9473 112.907 69.2133 117.786C68.7909 122.944 68.8348 128.13 69.3446 133.28Z" fill="white"/>
        <path d="M172.789 138.192C171.476 135.383 168.227 129.829 168.227 129.829L130.666 192L167.324 166.386C169.509 164.927 171.301 162.952 172.543 160.635C174.215 157.138 175.103 153.318 175.146 149.441C175.188 145.564 174.384 141.725 172.789 138.192Z" fill="white"/>
        <path d="M187.672 117.72C187.258 111.774 185.58 105.984 182.75 100.739C179.92 95.494 176.003 90.9151 171.263 87.3087L130.715 59C130.715 59 156.068 95.6058 177.482 132.031C179.642 135.88 181.093 140.088 181.764 144.452C182.064 146.429 182.064 148.439 181.764 150.416C182.322 149.381 183.405 147.261 183.405 147.261C185.575 142.831 187.053 138.093 187.787 133.214C188.215 128.056 188.176 122.871 187.672 117.72Z" fill="white"/>
        <path d="M84.474 90.3811C85.7158 88.0646 87.5078 86.0897 89.6922 84.6306L126.35 59L88.7896 121.187C88.7896 121.187 85.5077 115.634 84.2278 112.824C82.6328 109.291 81.8284 105.452 81.8709 101.575C81.9135 97.6987 82.8019 93.878 84.474 90.3811ZM69.3446 133.28C69.7585 139.227 71.4366 145.016 74.2666 150.261C77.0966 155.506 81.0131 160.085 85.7539 163.691L126.301 192C126.301 192 100.932 155.394 79.5348 118.969C77.3685 115.121 75.9121 110.913 75.2355 106.548C74.936 104.571 74.936 102.561 75.2355 100.584C74.6776 101.619 73.5946 103.739 73.5946 103.739C71.425 108.169 69.9473 112.907 69.2133 117.786C68.7909 122.944 68.8348 128.13 69.3446 133.28ZM172.723 138.209C171.41 135.399 168.161 129.846 168.161 129.846L130.666 192L167.324 166.386C169.509 164.927 171.301 162.952 172.543 160.635C174.215 157.138 175.103 153.318 175.146 149.441C175.188 145.564 174.384 141.725 172.789 138.192L172.723 138.209ZM187.606 117.737C187.192 111.79 185.514 106 182.684 100.755C179.854 95.5105 175.938 90.9315 171.197 87.3251L130.715 59C130.715 59 156.068 95.6058 177.482 132.031C179.642 135.88 181.093 140.088 181.764 144.452C182.064 146.429 182.064 148.439 181.764 150.416C182.322 149.381 183.405 147.261 183.405 147.261C185.575 142.831 187.053 138.093 187.787 133.214C188.215 128.056 188.176 122.871 187.672 117.72L187.606 117.737Z" fill="white"/>
    </g>
    <defs>
        <filter id="filter0_d" x="0" y="0" width="258" height="258" filterUnits="userSpaceOnUse" color-interpolation-filters="sRGB">
            <feFlood flood-opacity="0" result="BackgroundImageFix"/>
            <feColorMatrix in="SourceAlpha" type="matrix" values="0 0 0 0 0 0 0 0 0 0 0 0 0 0 0 0 0 0 127 0" result="hardAlpha"/>
            <feOffset dy="4"/>
            <feGaussianBlur stdDeviation="13"/>
            <feComposite in2="hardAlpha" operator="out"/>
            <feColorMatrix type="matrix" values="0 0 0 0 0 0 0 0 0 0 0 0 0 0 0 0 0 0 0.06 0"/>
            <feBlend mode="normal" in2="BackgroundImageFix" result="effect1_dropShadow"/>
            <feBlend mode="normal" in="SourceGraphic" in2="effect1_dropShadow" result="shape"/>
        </filter>
        <linearGradient id="paint0_linear" x1="52.821" y1="213.472" x2="226.04" y2="36.528" gradientUnits="userSpaceOnUse">
            <stop stop-color="#68BDFE"/>
            <stop offset="1" stop-color="#A29BFE"/>
        </linearGradient>
        <clipPath id="clip0">
            <rect width="119" height="133" fill="white" transform="translate(69 59)"/>
        </clipPath>
    </defs>
</svg>
