<svg width="36" height="36" viewBox="0 0 36 36" fill="none" xmlns="http://www.w3.org/2000/svg">
<g clip-path="url(#clip0_467:580)">
<path d="M36 6.83549C34.6755 7.42349 33.252 7.81949 31.758 7.99799C33.2835 7.08449 34.455 5.63699 35.0055 3.91199C33.579 4.75799 31.998 5.37299 30.315 5.70449C28.9695 4.26899 27.048 3.37199 24.924 3.37199C20.1555 3.37199 16.6515 7.82099 17.7285 12.4395C11.592 12.132 6.15 9.19199 2.5065 4.72349C0.5715 8.04299 1.503 12.3855 4.791 14.5845C3.582 14.5455 2.442 14.214 1.4475 13.6605C1.3665 17.082 3.819 20.283 7.371 20.9955C6.3315 21.2775 5.193 21.3435 4.035 21.1215C4.974 24.0555 7.701 26.19 10.935 26.25C7.83 28.6845 3.918 29.772 0 29.31C3.2685 31.4055 7.152 32.628 11.322 32.628C25.035 32.628 32.7825 21.0465 32.3145 10.659C33.7575 9.61649 35.01 8.31599 36 6.83549Z" fill="#4D90F1"/>
</g>
<defs>
<clipPath id="clip0_467:580">
<rect width="36" height="36" fill="white"/>
</clipPath>
</defs>
</svg>
