<svg width="144" height="144" xmlns="http://www.w3.org/2000/svg"><svg xmlns="http://www.w3.org/2000/svg" fill="none" viewBox="0 0 173 49" width="144" height="144"><path fill="#fff" fill-rule="evenodd" d="M32 25c0 8.837-7.163 16-16 16S0 33.837 0 25 7.163 9 16 9s16 7.163 16 16Zm-10.027-3.939v.025-.024h-5.337a1.28 1.28 0 1 0-1.49 1.36v4.941c-3.77 0-6.826-2.821-6.826-6.302 0-3.48 3.056-6.301 6.827-6.301 3.77 0 6.826 2.821 6.826 6.301Zm-11.946 7.854v.024c0 3.48 3.056 6.301 6.826 6.301 3.77 0 6.827-2.821 6.827-6.302 0-3.48-3.056-6.301-6.827-6.301v4.94a1.28 1.28 0 1 1-1.49 1.361h-5.336v-.023Z" clip-rule="evenodd" class="color000 svgShape"/><path fill="#fff" d="M49.056 17.696c-2.325 0-3.488.768-3.488 2.304 0 .683.288 1.205.864 1.568.576.363 1.92.885 4.032 1.568 2.133.683 3.627 1.461 4.48 2.336.853.853 1.28 2.176 1.28 3.968 0 2.283-.693 4.01-2.08 5.184-1.387 1.173-3.2 1.76-5.44 1.76-1.664 0-3.701-.256-6.112-.768l-1.152-.224.448-3.424c2.859.384 5.045.576 6.56.576 2.261 0 3.392-.939 3.392-2.816 0-.683-.267-1.216-.8-1.6-.512-.384-1.547-.8-3.104-1.248-2.475-.704-4.224-1.536-5.248-2.496-1.003-.981-1.504-2.336-1.504-4.064 0-2.176.661-3.797 1.984-4.864 1.323-1.067 3.136-1.6 5.44-1.6 1.579 0 3.584.213 6.016.64l1.152.224-.352 3.488c-3.008-.341-5.13-.512-6.368-.512ZM62.91 29.824c.022.981.278 1.696.768 2.144.512.427 1.238.64 2.176.64 1.984 0 3.755-.064 5.312-.192l.896-.096.064 3.168c-2.453.597-4.672.896-6.656.896-2.41 0-4.16-.64-5.248-1.92-1.088-1.28-1.632-3.36-1.632-6.24 0-5.739 2.358-8.608 7.072-8.608 4.65 0 6.976 2.41 6.976 7.232l-.32 2.976H62.91Zm5.504-3.264c0-1.28-.202-2.165-.608-2.656-.405-.512-1.12-.768-2.144-.768-1.002 0-1.717.267-2.144.8-.405.512-.618 1.387-.64 2.624h5.536Zm19.545-1.568v6.656c.042.512.128.875.256 1.088.128.192.394.33.8.416l-.128 3.232c-1.088 0-1.963-.075-2.624-.224-.64-.15-1.29-.448-1.952-.896-1.536.747-3.104 1.12-4.704 1.12-3.307 0-4.96-1.75-4.96-5.248 0-1.707.458-2.912 1.376-3.616.917-.725 2.325-1.152 4.224-1.28l3.424-.256v-.992c0-.661-.15-1.11-.448-1.344-.299-.256-.779-.384-1.44-.384l-6.016.256-.128-2.976c2.282-.619 4.448-.928 6.496-.928 2.07 0 3.552.427 4.448 1.28.917.853 1.376 2.219 1.376 4.096Zm-7.2 4.224c-1.195.107-1.792.747-1.792 1.92s.522 1.76 1.568 1.76c.81 0 1.696-.128 2.656-.384l.48-.128V28.96l-2.912.256ZM96.335 36h-4.288V20h4.255v.896c1.472-.853 2.731-1.28 3.777-1.28 1.728 0 3.061.501 4 1.504 1.962-1.003 3.754-1.504 5.376-1.504 2.112 0 3.573.619 4.384 1.856.832 1.216 1.248 3.168 1.248 5.856V36h-4.288v-8.544c0-1.365-.15-2.368-.448-3.008-.299-.661-.896-.992-1.792-.992-.683 0-1.515.15-2.497.448l-.479.16c.085 1.6.128 2.816.128 3.648V36h-4.288v-8.224c0-1.579-.139-2.688-.416-3.328-.278-.661-.886-.992-1.825-.992-.832 0-1.653.15-2.463.448l-.384.128V36Zm22.747 0V13.6h4.288V36h-4.288Zm11.953-6.176c.022.981.278 1.696.768 2.144.512.427 1.238.64 2.176.64 1.984 0 3.755-.064 5.312-.192l.896-.096.064 3.168c-2.453.597-4.672.896-6.656.896-2.41 0-4.16-.64-5.248-1.92-1.088-1.28-1.632-3.36-1.632-6.24 0-5.739 2.358-8.608 7.072-8.608 4.651 0 6.976 2.41 6.976 7.232l-.32 2.976h-9.408Zm5.504-3.264c0-1.28-.202-2.165-.608-2.656-.405-.512-1.12-.768-2.144-.768-1.002 0-1.717.267-2.144.8-.405.512-.618 1.387-.64 2.624h5.536ZM155.316 24c-2.646-.341-4.502-.512-5.568-.512-1.046 0-1.728.096-2.048.288-.299.192-.448.501-.448.928 0 .405.202.693.608.864.426.15 1.493.384 3.2.704 1.728.299 2.954.8 3.68 1.504.725.704 1.088 1.845 1.088 3.424 0 3.456-2.144 5.184-6.432 5.184-1.408 0-3.115-.192-5.12-.576l-1.024-.192.128-3.584c2.645.341 4.48.512 5.504.512 1.045 0 1.749-.096 2.112-.288.384-.213.576-.523.576-.928s-.203-.704-.608-.896c-.384-.192-1.408-.427-3.072-.704-1.643-.277-2.87-.747-3.68-1.408-.811-.661-1.216-1.835-1.216-3.52 0-1.707.576-2.987 1.728-3.84 1.152-.875 2.634-1.312 4.448-1.312 1.258 0 2.976.203 5.152.608l1.056.192-.064 3.552Zm15.094 0c-2.646-.341-4.502-.512-5.568-.512-1.046 0-1.728.096-2.048.288-.299.192-.448.501-.448.928 0 .405.202.693.608.864.426.15 1.493.384 3.2.704 1.728.299 2.954.8 3.68 1.504.725.704 1.088 1.845 1.088 3.424 0 3.456-2.144 5.184-6.432 5.184-1.408 0-3.115-.192-5.12-.576l-1.024-.192.128-3.584c2.645.341 4.48.512 5.504.512 1.045 0 1.749-.096 2.112-.288.384-.213.576-.523.576-.928s-.203-.704-.608-.896c-.384-.192-1.408-.427-3.072-.704-1.643-.277-2.87-.747-3.68-1.408-.811-.661-1.216-1.835-1.216-3.52 0-1.707.576-2.987 1.728-3.84 1.152-.875 2.634-1.312 4.448-1.312 1.258 0 2.976.203 5.152.608l1.056.192L170.41 24Z" class="color000 svgShape"/></svg></svg>
