<svg width="288" height="288" xmlns="http://www.w3.org/2000/svg"><svg xmlns="http://www.w3.org/2000/svg" fill="none" viewBox="0 0 32 32" width="288" height="288"><path fill="#fff" fill-rule="evenodd" d="M32 16c0 8.837-7.163 16-16 16S0 24.837 0 16 7.163 0 16 0s16 7.163 16 16Zm-10.027-3.938v.024-.024h-5.337a1.28 1.28 0 1 0-1.49 1.36v4.941c-3.77 0-6.826-2.821-6.826-6.301s3.056-6.302 6.827-6.302c3.77 0 6.826 2.821 6.826 6.302Zm-11.946 7.853v.024c0 3.48 3.056 6.301 6.826 6.301 3.77 0 6.827-2.821 6.827-6.301s-3.056-6.302-6.827-6.302v4.94a1.28 1.28 0 1 1-1.49 1.361h-5.336v-.023Z" clip-rule="evenodd" class="color000 svgShape"/></svg></svg>
