<?xml version="1.0" standalone="no"?>
<!DOCTYPE svg PUBLIC "-//W3C//DTD SVG 20010904//EN"
 "http://www.w3.org/TR/2001/REC-SVG-20010904/DTD/svg10.dtd">
<svg version="1.0" xmlns="http://www.w3.org/2000/svg"
 width="192.000000pt" height="192.000000pt" viewBox="0 0 192.000000 192.000000"
 preserveAspectRatio="xMidYMid meet">
<metadata>
Created by potrace 1.14, written by Peter Selinger 2001-2017
</metadata>
<g transform="translate(0.000000,192.000000) scale(0.100000,-0.100000)"
fill="#000000" stroke="none">
<path d="M790 1905 c-36 -8 -75 -16 -87 -19 -59 -13 -202 -80 -276 -130 -231
-155 -377 -387 -417 -664 -14 -95 -7 -262 15 -347 8 -33 17 -69 20 -80 3 -11
9 -29 14 -40 5 -11 19 -42 31 -70 12 -27 46 -86 75 -130 111 -166 280 -298
472 -369 168 -62 375 -70 578 -22 80 18 231 92 307 149 160 120 254 242 338
442 9 21 24 68 22 72 0 2 4 17 10 35 18 58 22 110 22 243 0 102 -5 149 -23
219 -13 50 -27 97 -31 105 -5 9 -18 39 -30 66 -12 28 -46 86 -75 130 -133 200
-340 342 -582 401 -90 22 -298 26 -383 9z"/>
</g>
</svg>
